<svg class="o-logo" width="303" height="40" xmlns="http://www.w3.org/2000/svg" viewBox="0 0 303 40">
    <g>
      <g class="o-logo__text">
        <path fill="currentColor" d="M63.8,29.4V10.6h3.6l8,11.8V10.6h4v18.8h-3.7l-8-11.8v11.8H63.8z"></path>
        <path fill="currentColor" d="M82.7,10.6h4v7.5h7.5v-7.5h4v18.8h-4v-7.8h-7.5v7.8h-4V10.6z"></path>
        <path fill="currentColor" d="M104.6,23.3c0.1,1.8,1.6,3.1,3.9,3.1c1.9,0,3.2-0.8,3.2-2.3c0-1.6-1.5-1.9-4.7-2.5c-3.2-0.6-6-1.6-6-5.4
				c0-3.3,2.8-5.7,7-5.7c4.4,0,7.2,2.3,7.3,5.9h-3.9c-0.2-1.6-1.4-2.7-3.4-2.7c-1.7,0-3,0.7-3,2.2c0,1.5,1.5,1.9,4.6,2.4
				c3.2,0.6,6.1,1.6,6,5.3c0,3.5-2.9,5.9-7.3,5.9c-4.8,0-7.8-2.5-7.8-6.3L104.6,23.3z"></path>
        <path fill="currentColor" d="M124.1,20c0-5.8,3.5-9.6,9.2-9.6c4.5,0,7.6,2.8,8.1,6.9h-4.1c-0.5-2.1-2-3.5-4.2-3.5c-3.1,0-4.9,2.5-4.9,6.1
				c0,3.6,1.8,6.1,4.8,6.1c2.3,0,3.8-1.4,4.3-3.5h4.1c-0.5,4.1-3.7,6.9-8.3,6.9C127.5,29.6,124.1,25.8,124.1,20z"></path>
        <path fill="currentColor" d="M142.7,22.5c0-4.2,2.9-7.1,7.3-7.1c4.4,0,7.3,2.8,7.3,7.1c0,4.3-2.9,7.1-7.3,7.1
				C145.6,29.6,142.7,26.8,142.7,22.5z M153.5,22.5c0-2.3-1.3-4-3.4-4c-2.1,0-3.4,1.6-3.4,4s1.3,4,3.4,4
				C152.1,26.5,153.5,24.9,153.5,22.5z"></path>
        <path fill="currentColor" d="M172.8,21.8v7.6H169v-7.3c0-2.3-0.9-3.6-2.8-3.6c-2,0-3.1,1.4-3.1,3.8v7.1h-3.8V15.6h3.3l0.3,1.7
				c0.9-1.1,2.1-1.9,4.3-1.9C170.2,15.5,172.8,17,172.8,21.8z"></path>
        <path fill="currentColor" d="M174,15.6h2.3v-1c0-2.5,1.4-4,4.2-4h3.1v3.2h-2.4c-0.8,0-1.1,0.3-1.1,1.1v0.6h3.5v3.2h-3.5v10.6h-3.8V18.8
				H174V15.6z"></path>
        <path fill="currentColor" d="M184.1,22.5c0-4.3,2.8-7.1,7.1-7.1c4.1,0,6.9,2.6,7,6.6c0,0.4,0,0.9-0.1,1.3h-10v0.2c0.1,2,1.3,3.1,3.2,3.1
				c1.5,0,2.6-0.7,2.9-2h3.7c-0.4,2.7-2.8,4.8-6.5,4.8C186.9,29.6,184.1,26.8,184.1,22.5z M194.4,20.9c-0.3-1.7-1.4-2.6-3.1-2.6
				c-1.6,0-2.9,1-3.1,2.6H194.4z"></path>
        <path fill="currentColor" d="M210.2,10.6h3.8v18.8h-3.3l-0.4-1.9c-0.9,1.2-2.3,2.1-4.2,2.1c-3.7,0-6.4-2.7-6.4-7.1c0-4.3,2.7-7,6.4-7
				c1.9,0,3.3,0.8,4.2,1.9V10.6z M210.2,22.5c0-2.4-1.3-4-3.4-4c-2.1,0-3.4,1.6-3.4,4c0,2.4,1.3,4,3.4,4
				C208.9,26.5,210.2,24.9,210.2,22.5z"></path>
        <path fill="currentColor" d="M216,22.5c0-4.3,2.8-7.1,7.1-7.1c4.1,0,6.9,2.6,7,6.6c0,0.4,0,0.9-0.1,1.3h-10v0.2c0.1,2,1.3,3.1,3.2,3.1
				c1.5,0,2.6-0.7,2.9-2h3.7c-0.4,2.7-2.8,4.8-6.5,4.8C218.7,29.6,216,26.8,216,22.5z M226.2,20.9c-0.3-1.7-1.4-2.6-3.1-2.6
				c-1.6,0-2.9,1-3.1,2.6H226.2z"></path>
        <path fill="currentColor" d="M240.3,15.6v3.4h-1.5c-2.3,0-3.1,1.5-3.1,3.6v6.8h-3.8V15.6h3.4l0.3,2.1c0.8-1.2,1.8-2.1,4-2.1H240.3z"></path>
        <path fill="currentColor" d="M255.4,26.2v3.2h-1.9c-2,0-2.6-0.9-2.5-2.3c-1,1.5-2.4,2.4-4.5,2.4c-3,0-5.1-1.4-5.1-4.1
				c0-2.9,2.2-4.6,6.3-4.6h2.7v-0.7c0-1.2-0.9-2-2.5-2c-1.5,0-2.5,0.7-2.6,1.7h-3.6c0.3-2.7,2.7-4.5,6.4-4.5c3.9,0,6.1,1.7,6.1,5
				v4.9c0,0.7,0.3,0.9,0.9,0.9H255.4z M250.3,23.5h-2.8c-1.6,0-2.5,0.6-2.5,1.8c0,1,0.8,1.6,2,1.6c2,0,3.2-1.2,3.2-3.1V23.5z"></path>
        <path fill="currentColor" d="M257.8,18.8h-2.3v-3.2h2.3v-3.9h3.8v3.9h3.2v3.2h-3.2v6c0,1,0.4,1.4,1.4,1.4h1.9v3.2h-3.1
				c-2.6,0-3.9-1.3-3.9-3.9V18.8z"></path>
        <path fill="currentColor" d="M266.4,12c0-1.2,1-2.1,2.2-2.1c1.2,0,2.2,0.9,2.2,2.1c0,1.2-1,2.1-2.2,2.1C267.4,14.1,266.4,13.2,266.4,12z
				 M266.7,15.6h3.8v13.8h-3.8V15.6z"></path>
        <path fill="currentColor" d="M272.4,22.5c0-4.2,2.9-7.1,7.3-7.1c4.4,0,7.3,2.8,7.3,7.1c0,4.3-2.9,7.1-7.3,7.1
				C275.3,29.6,272.4,26.8,272.4,22.5z M283.1,22.5c0-2.3-1.3-4-3.4-4c-2.1,0-3.4,1.6-3.4,4s1.3,4,3.4,4
				C281.8,26.5,283.1,24.9,283.1,22.5z"></path>
        <path fill="currentColor" d="M302.4,21.8v7.6h-3.8v-7.3c0-2.3-0.9-3.6-2.8-3.6c-2,0-3.1,1.4-3.1,3.8v7.1H289V15.6h3.3l0.3,1.7
				c0.9-1.1,2.1-1.9,4.3-1.9C299.9,15.5,302.4,17,302.4,21.8z"></path>
      </g>

      <g class="o-logo__icon">
        <path class="o-logo__icon-right" fill="currentColor" d="M40.3,20c0-9.5-6.6-17.5-15.5-19.5C26.2,0.2,27.7,0,29.3,0c11,0,20,9,20,20s-9,20-20,20c-1.5,0-3-0.2-4.5-0.5
			C33.6,37.5,40.3,29.5,40.3,20"></path>
        <path class="o-logo__icon-left t-mid-colour" d="M9,20c0-9.5,6.6-17.5,15.5-19.5C23,0.2,21.5,0,20,0C9,0,0,9,0,20s9,20,20,20c1.5,0,3-0.2,4.5-0.5
			C15.6,37.5,9,29.5,9,20"></path>
      </g>
    </g>
  </svg>