<?xml version="1.0" standalone="no"?>
<!DOCTYPE svg PUBLIC "-//W3C//DTD SVG 20010904//EN"
 "http://www.w3.org/TR/2001/REC-SVG-20010904/DTD/svg10.dtd">
<svg version="1.0" xmlns="http://www.w3.org/2000/svg"
 width="1232.000000pt" height="982.000000pt" viewBox="0 0 1232.000000 982.000000"
 preserveAspectRatio="xMidYMid meet">
<metadata>
Created by potrace 1.16, written by Peter Selinger 2001-2019
</metadata>
<g transform="translate(0.000000,982.000000) scale(0.100000,-0.100000)"
fill="#ff0000" stroke="none">
<path d="M8258 9176 c-114 -44 -447 -269 -565 -382 -11 -10 -53 -50 -93 -89
-94 -90 -219 -231 -278 -314 -25 -36 -49 -68 -52 -71 -9 -8 -105 -161 -140
-225 -131 -235 -278 -595 -376 -924 -25 -82 -30 -92 -49 -88 -248 59 -352 75
-563 89 -290 18 -576 -5 -880 -72 -60 -14 -106 -19 -111 -14 -5 5 -25 59 -45
121 -39 122 -110 314 -151 415 -72 172 -218 466 -288 577 -142 228 -366 475
-545 601 -180 127 -380 220 -472 220 -163 0 -276 -172 -211 -322 24 -55 83
-114 130 -129 111 -35 297 -152 417 -262 192 -175 394 -510 564 -937 47 -118
150 -416 150 -435 0 -7 -29 -24 -64 -39 -78 -33 -255 -131 -351 -193 -216
-141 -472 -378 -631 -583 -144 -186 -311 -454 -384 -615 -81 -178 -173 -413
-214 -543 -67 -214 -181 -742 -235 -1087 -59 -379 -65 -845 -16 -1181 34 -227
113 -491 205 -681 225 -467 586 -776 1015 -868 103 -22 294 -30 400 -16 353
46 619 233 837 588 184 298 257 564 310 1128 17 183 17 950 0 1265 -7 129 -19
386 -27 570 -22 475 -41 689 -96 1050 -36 234 -109 609 -163 832 l-13 58 36 9
c267 71 639 97 920 66 116 -13 358 -59 370 -71 2 -2 -3 -32 -12 -66 -121 -468
-241 -1337 -287 -2063 -39 -627 -47 -960 -30 -1345 22 -495 52 -740 125 -1016
83 -311 165 -465 344 -645 235 -236 497 -352 831 -366 163 -7 279 7 415 48
213 66 368 162 545 339 168 168 243 281 348 530 89 212 130 385 168 715 32
277 19 871 -27 1195 -102 732 -212 1134 -439 1606 -170 355 -336 594 -559 805
-219 208 -456 371 -733 504 -65 31 -118 61 -118 65 0 5 31 102 69 217 126 382
214 580 374 844 150 246 457 539 737 702 148 86 165 100 194 158 57 115 15
254 -95 309 -51 27 -143 34 -191 16z m-3420 -2758 c48 -186 117 -554 161 -854
44 -298 58 -478 86 -1094 8 -184 20 -443 26 -575 22 -467 2 -1048 -47 -1355
-53 -337 -178 -604 -367 -787 -125 -121 -263 -169 -457 -160 -124 6 -199 24
-297 73 -140 70 -263 173 -357 299 -81 108 -90 123 -144 230 -82 165 -151 402
-184 640 -20 141 -16 648 5 815 44 335 146 842 223 1107 67 232 210 575 302
727 23 37 42 70 42 71 0 9 94 144 174 250 152 200 358 391 561 520 76 49 236
135 251 135 6 0 16 -19 22 -42z m2320 -13 c348 -178 634 -433 828 -737 72
-112 221 -410 277 -553 163 -412 264 -885 318 -1495 18 -208 16 -676 -5 -845
-30 -246 -56 -364 -113 -510 -107 -276 -243 -450 -444 -570 -119 -70 -208 -96
-355 -102 -177 -8 -311 25 -450 108 -117 71 -238 204 -285 315 -11 27 -24 58
-29 69 -37 80 -100 359 -124 550 -60 464 -51 1453 19 2195 25 270 38 390 50
480 8 58 21 159 30 225 26 190 71 453 116 670 23 110 44 212 46 228 3 15 7 27
10 27 3 0 53 -25 111 -55z"/>
</g>
</svg>
